<svg width="112" height="112" viewBox="0 0 112 112" fill="none" xmlns="http://www.w3.org/2000/svg">
<path d="M29.7963 11.4474C30.1288 11.913 30.6609 12.046 31.2595 11.7135C31.9246 11.3809 31.9911 10.9819 31.7251 10.5828C31.459 10.0507 30.9934 10.0507 30.0623 10.2503C28.5991 10.5828 27.8675 10.3833 27.4019 9.58517C26.8033 8.52102 27.3354 7.52337 28.3996 6.92479C29.7298 6.19318 30.6609 6.59224 31.2595 7.45686L30.1288 8.05545C29.8628 7.65639 29.4637 7.45686 28.8651 7.78941C28.3331 8.05545 28.2666 8.45451 28.4661 8.85356C28.6656 9.25262 29.0647 9.25262 29.9293 9.05309C31.592 8.65403 32.2571 9.05309 32.7227 9.85121C33.2548 10.7823 33.0552 11.8465 31.592 12.7111C30.3949 13.3762 29.2642 13.2432 28.5326 12.1125L29.7963 11.4474Z" fill="white"/>
<path d="M41.901 6.19313C42.1006 7.25728 41.7015 8.45445 40.1718 8.98653C38.243 9.65162 37.1123 8.45445 36.5138 6.7252C35.9152 4.99596 36.3807 3.33322 38.11 2.73463C39.7727 2.20256 40.7039 3.00067 41.1029 3.9318L39.9057 4.33086C39.6397 3.86529 39.2407 3.46624 38.4425 3.73228C37.4449 4.06482 37.4449 5.19548 37.7774 6.25964C38.1765 7.3903 38.7751 8.32143 39.8392 7.92237C40.6374 7.65634 40.7039 6.99124 40.6373 6.52568L41.901 6.19313Z" fill="white"/>
<path d="M47.8203 4.33091L48.1529 6.92478L46.8892 7.0578L46.0911 0.739393L48.6849 0.406845C49.8821 0.273826 50.8132 0.739393 50.9463 1.87005C51.0793 2.73468 50.6802 3.20024 50.1481 3.46628C50.8132 3.5993 51.0793 4.06487 51.2123 4.86298V4.996C51.2788 5.52808 51.4118 6.06015 51.4783 6.45921L50.2147 6.59223C50.0816 6.32619 50.0151 5.92713 49.8821 5.12902V4.92949C49.8156 4.19789 49.4831 3.99836 48.6849 4.06487L47.8203 4.33091ZM47.6873 3.33326L48.6184 3.20024C49.217 3.13374 49.6826 2.8677 49.6161 2.2026C49.5496 1.60402 49.084 1.471 48.5519 1.53751L47.4878 1.67053L47.6873 3.33326Z" fill="white"/>
<path d="M61.7208 3.46627C61.5878 5.32854 60.6567 6.72524 58.5949 6.59222C56.5996 6.4592 55.868 4.92948 56.001 3.06721C56.0675 1.47098 57.0652 -0.125244 59.127 0.00777551C60.9892 0.207304 61.7873 1.80353 61.7208 3.46627ZM57.3312 3.20023C57.2647 4.46391 57.6637 5.52807 58.7279 5.59457C59.8586 5.66108 60.3241 4.72995 60.3906 3.39976C60.4571 2.20259 60.1246 1.13844 58.9939 1.07193C57.9298 1.07193 57.3977 2.00306 57.3312 3.20023Z" fill="white"/>
<path d="M67.5071 1.33795L68.7708 1.6705L67.4406 6.79173L70.234 7.52334L69.835 8.52098L65.9774 7.52334L67.5071 1.33795Z" fill="white"/>
<path d="M76.5524 4.13135L77.7496 4.66342L75.5548 9.51862L78.1487 10.6493L77.6166 11.5804L73.9586 9.91767L76.5524 4.13135Z" fill="white"/>
<path d="M90.453 13.7752L89.1228 12.6446L89.8544 11.8464L93.4459 14.9724L92.7143 15.7705L91.3841 14.6398L87.9256 18.6969L86.928 17.8323L90.453 13.7752Z" fill="white"/>
<path d="M98.2346 25.0819C96.7714 26.2125 95.1087 26.4786 93.845 24.8823C92.5813 23.3526 93.2464 21.7564 94.7096 20.6257C95.9068 19.6281 97.769 19.2955 99.0327 20.8918C100.163 22.355 99.5648 24.0177 98.2346 25.0819ZM95.5077 21.6899C94.5101 22.488 94.0445 23.4856 94.6431 24.2838C95.3082 25.1484 96.3058 24.8823 97.37 24.0177C98.3011 23.2861 98.8332 22.355 98.1016 21.4238C97.503 20.6257 96.4388 20.8918 95.5077 21.6899Z" fill="white"/>
<path d="M103.755 27.9418L104.819 30.0036C105.351 31.0677 105.351 32.2649 104.154 32.8635C102.957 33.4621 101.893 32.93 101.294 31.7328L100.828 30.9347L98.6336 32.0654L98.035 30.9347L103.755 27.9418ZM101.826 30.4026L102.225 31.1342C102.558 31.7328 102.957 31.9989 103.622 31.6663C104.154 31.4003 104.22 30.8682 103.888 30.2696L103.489 29.4715L101.826 30.4026Z" fill="white"/>
<path d="M106.814 46.0989L105.75 46.2984L105.285 43.9041L106.349 43.7045L106.814 46.0989Z" fill="white"/>
<path d="M106.548 58.0041C105.95 58.0706 105.551 58.4031 105.484 59.0682C105.418 59.7998 105.75 60.0659 106.216 60.0659C106.814 60.1324 107.08 59.7998 107.346 58.8687C107.878 57.4055 108.411 56.9399 109.342 57.0064C110.539 57.0729 111.071 58.0706 111.004 59.2677C110.871 60.7975 110.073 61.396 109.009 61.396L109.076 60.1324C109.541 60.0659 109.94 59.8663 109.94 59.2012C110.007 58.6026 109.741 58.3366 109.275 58.2701C108.81 58.2701 108.677 58.5361 108.344 59.4008C107.745 60.997 107.08 61.396 106.149 61.3295C105.085 61.263 104.287 60.5314 104.353 58.8687C104.42 57.472 105.218 56.6074 106.482 56.6074L106.548 58.0041Z" fill="white"/>
<path d="M104.486 71.0399C103.489 70.5744 102.691 69.6432 103.09 68.047C103.622 66.1182 105.218 65.7857 106.947 66.2512C108.677 66.7168 109.874 67.9805 109.408 69.7762C109.009 71.439 107.745 71.838 106.748 71.6385L107.08 70.4413C107.612 70.4413 108.144 70.3748 108.411 69.5102C108.677 68.5126 107.745 67.8475 106.615 67.5814C105.418 67.2489 104.353 67.3154 104.087 68.3795C103.888 69.1777 104.353 69.5767 104.819 69.8427L104.486 71.0399Z" fill="white"/>
<path d="M102.824 77.0258L100.429 75.8951L100.961 74.7645L106.748 77.4914L105.617 79.8192C105.085 80.8833 104.22 81.4154 103.156 80.9498C102.358 80.5508 102.159 79.9522 102.225 79.4201C101.76 79.8857 101.161 79.8857 100.496 79.5531L100.363 79.4866C99.8308 79.2206 99.3652 79.0211 99.0327 78.9546L99.5647 77.8239C99.8308 77.8239 100.23 78.0234 100.961 78.356L101.094 78.4225C101.76 78.755 102.092 78.622 102.425 77.8239L102.824 77.0258ZM103.755 77.4248L103.356 78.2895C103.09 78.8215 103.023 79.3536 103.688 79.6862C104.22 79.9522 104.619 79.6197 104.819 79.1541L105.285 78.0899L103.755 77.4248Z" fill="white"/>
<path d="M95.9733 89.1305C94.5101 88.0664 93.845 86.4702 95.0421 84.8074C96.2393 83.2112 97.9021 83.4772 99.3653 84.5414C100.629 85.4725 101.427 87.1353 100.23 88.798C99.0992 90.3277 97.37 90.1282 95.9733 89.1305ZM98.5672 85.6055C97.5695 84.8739 96.4388 84.6744 95.8403 85.4725C95.1752 86.3371 95.7072 87.2683 96.7714 88.0664C97.7025 88.798 98.7667 89.064 99.4318 88.1329C100.097 87.2683 99.5648 86.3371 98.5672 85.6055Z" fill="white"/>
<path d="M94.6431 95.1829L93.7119 96.0475L90.1204 92.1234L88.0586 94.0522L87.46 93.1876L90.3864 90.4607L94.6431 95.1829Z" fill="white"/>
<path d="M87.46 101.235L86.3959 101.967L83.4694 97.5107L81.0751 99.0404L80.543 98.1093L83.8685 95.9145L87.46 101.235Z" fill="white"/>
<path d="M71.7638 107.753L73.4265 107.288L73.759 108.285L69.1699 109.615L68.8373 108.618L70.5001 108.152L68.9704 103.098L70.234 102.698L71.7638 107.753Z" fill="white"/>
<path d="M58.0628 108.086C57.8633 106.29 58.5949 104.694 60.5902 104.494C62.5189 104.295 63.5166 105.691 63.7161 107.554C63.8491 109.15 63.184 110.879 61.1887 111.079C59.26 111.278 58.2623 109.815 58.0628 108.086ZM62.3859 107.687C62.2529 106.423 61.6543 105.492 60.6567 105.558C59.526 105.691 59.26 106.623 59.393 107.953C59.526 109.15 59.9916 110.081 61.1222 110.014C62.1864 109.881 62.5189 108.884 62.3859 107.687Z" fill="white"/>
<path d="M52.6755 111.212L50.3477 111.012C49.1505 110.879 48.1528 110.214 48.2859 108.884C48.4189 107.554 49.4165 106.955 50.8132 107.088L51.7444 107.155L51.9439 104.76L53.2741 104.893L52.6755 111.212ZM51.6113 108.219L50.7467 108.152C50.0816 108.086 49.6161 108.285 49.5495 109.017C49.483 109.682 49.8821 109.948 50.5472 110.015L51.4118 110.081L51.6113 108.219Z" fill="white"/>
<path d="M35.7156 103.962L36.1147 102.965L38.376 103.829L37.977 104.827L35.7156 103.962Z" fill="white"/>
<path d="M25.8722 97.3112C26.1382 96.7791 26.0717 96.2471 25.5396 95.848C24.941 95.3824 24.542 95.5155 24.2759 95.848C23.9434 96.3136 24.0764 96.7126 24.675 97.4442C25.6061 98.6414 25.6726 99.373 25.1406 100.105C24.4089 101.036 23.2783 101.036 22.3472 100.304C21.15 99.373 21.0835 98.3754 21.6155 97.5108L22.6132 98.2423C22.4137 98.6414 22.3472 99.107 22.8792 99.506C23.3448 99.8386 23.7439 99.7721 24.0099 99.4395C24.2759 99.0405 24.1429 98.7744 23.5443 97.9763C22.5467 96.6461 22.5467 95.848 23.1453 95.1164C23.7439 94.2518 24.8745 93.9857 26.2047 94.9834C27.3354 95.848 27.6014 96.9122 26.9363 97.9763L25.8722 97.3112Z" fill="white"/>
<path d="M16.0288 88.3989C16.9599 87.8003 18.1571 87.6008 19.2877 88.8644C20.6179 90.3276 20.0859 91.8574 18.7557 93.121C17.4255 94.3182 15.6962 94.6508 14.4325 93.3206C13.2354 92.0569 13.6344 90.7932 14.2995 90.1281L15.1642 91.0592C14.8981 91.5248 14.6321 91.9904 15.2307 92.6555C15.9623 93.4536 16.9599 92.988 17.8245 92.1899C18.6892 91.3918 19.2877 90.3942 18.4896 89.596C17.891 88.9975 17.2925 89.197 16.8934 89.3965L16.0288 88.3989Z" fill="white"/>
<path d="M11.9717 83.8097L14.233 82.413L14.8981 83.4772L9.51085 86.8692L8.11415 84.6744C7.44905 83.6767 7.51556 82.6126 8.5132 82.014C9.24481 81.5484 9.84339 81.7479 10.309 82.0805C10.1759 81.4154 10.5085 80.9498 11.1736 80.5508L11.3066 80.4843C11.7722 80.2182 12.2377 79.8857 12.5038 79.6196L13.1689 80.6838C12.9693 80.8833 12.6368 81.1493 11.9717 81.5484L11.8387 81.6149C11.2401 82.014 11.1736 82.3465 11.5726 83.0781L11.9717 83.8097ZM11.1071 84.3418L10.575 83.5437C10.2424 83.0116 9.84339 82.6791 9.24481 83.0781C8.71273 83.4107 8.77924 83.8762 9.04528 84.3418L9.64386 85.3395L11.1071 84.3418Z" fill="white"/>
<path d="M5.45382 71.5055C7.18307 70.8404 8.8458 71.173 9.57741 73.0352C10.2425 74.8975 9.17835 76.2277 7.4491 76.8263C5.98589 77.3583 4.12363 77.1588 3.39202 75.23C2.72693 73.5008 3.85759 72.1041 5.45382 71.5055ZM6.98354 75.6291C8.18071 75.1635 8.91231 74.3654 8.57976 73.4343C8.18071 72.3701 7.18307 72.3701 5.91938 72.8357C4.78872 73.2348 3.99061 73.9664 4.38967 75.0305C4.78872 75.9616 5.85287 76.0282 6.98354 75.6291Z" fill="white"/>
<path d="M1.06415 67.1159L0.864624 65.8522L6.11888 64.9211L5.65331 62.1277L6.71746 62.0612L7.44907 65.9852L1.06415 67.1159Z" fill="white"/>
<path d="M1.26368 50.1559L1.06415 51.8852L0 51.7521L0.532076 47.03L1.59623 47.163L1.3967 48.8257L6.65095 49.4243L6.51793 50.7545L1.26368 50.1559Z" fill="white"/>
<path d="M6.25191 37.3861C7.98116 37.9182 9.17833 39.1819 8.57974 41.1107C7.98116 42.9729 6.31842 43.372 4.58917 42.8399C3.05945 42.3744 1.72926 41.0442 2.32785 39.1154C2.85992 37.3196 4.58917 36.9206 6.25191 37.3861ZM4.98823 41.5762C6.1854 41.9753 7.31606 41.7758 7.64861 40.7781C7.98116 39.714 7.18304 39.0489 5.91936 38.6498C4.7887 38.3173 3.65804 38.3838 3.32549 39.4479C2.99294 40.5121 3.79106 41.2437 4.98823 41.5762Z" fill="white"/>
<path d="M5.52026 31.2007L6.65093 29.1389C7.24951 28.0748 8.24715 27.4762 9.37782 28.0748C10.575 28.6734 10.708 29.8706 10.0429 31.1342L9.57734 31.9323L11.7722 33.1295L11.1071 34.2602L5.52026 31.2007ZM8.71272 31.4668L9.11178 30.7352C9.44433 30.1366 9.44433 29.6045 8.77923 29.272C8.24715 28.9394 7.78159 29.2055 7.44904 29.804L7.04998 30.6022L8.71272 31.4668Z" fill="white"/>
<path d="M18.8887 18.4974L19.6203 19.229L17.9576 20.9583L17.226 20.2267L18.8887 18.4974Z" fill="white"/>
<circle cx="54.5" cy="55.5" r="7.5" fill="white"/>
</svg>
